<svg width="281" height="89" viewBox="0 0 281 89" fill="none" xmlns="http://www.w3.org/2000/svg">
<rect x="1.5" y="1.5" width="278" height="86" rx="8.5" stroke="white" stroke-width="3"/>
<path d="M83 29.1797C83.625 29.1797 84.125 29.3047 84.5 29.5547C84.8906 29.7891 85.1797 30.1719 85.3672 30.7031L93.6406 53.8125H95.0703C95.6016 53.8125 95.9766 53.9375 96.1953 54.1875C96.4297 54.4219 96.5469 54.8281 96.5469 55.4062C96.5469 55.9844 96.4297 56.3984 96.1953 56.6484C95.9766 56.8828 95.6016 57 95.0703 57H86.7734C86.2422 57 85.8594 56.8828 85.625 56.6484C85.4062 56.3984 85.2969 55.9844 85.2969 55.4062C85.2969 54.8281 85.4062 54.4219 85.625 54.1875C85.8594 53.9375 86.2422 53.8125 86.7734 53.8125H89.9375L88.0156 48.2344H76.6484L74.7031 53.8125H77.5391C78.0703 53.8125 78.4453 53.9375 78.6641 54.1875C78.8984 54.4219 79.0156 54.8281 79.0156 55.4062C79.0156 55.9844 78.8984 56.3984 78.6641 56.6484C78.4453 56.8828 78.0703 57 77.5391 57H69.7109C69.1797 57 68.7969 56.8828 68.5625 56.6484C68.3438 56.3984 68.2344 55.9844 68.2344 55.4062C68.2344 54.8281 68.3438 54.4219 68.5625 54.1875C68.7969 53.9375 69.1797 53.8125 69.7109 53.8125H71.0234L78.7812 32.3672H74.3984C73.8672 32.3672 73.4844 32.25 73.25 32.0156C73.0312 31.7656 72.9219 31.3516 72.9219 30.7734C72.9219 30.1953 73.0312 29.7891 73.25 29.5547C73.4844 29.3047 73.8672 29.1797 74.3984 29.1797H83ZM82.1328 32.3672L77.75 45.0469H86.9375L82.5781 32.3672H82.1328ZM103.555 26.25C104.086 26.25 104.461 26.375 104.68 26.625C104.914 26.8594 105.031 27.2656 105.031 27.8438V38.6953C107.047 36.1172 109.523 34.8281 112.461 34.8281C114.398 34.8281 116.133 35.2891 117.664 36.2109C119.195 37.1172 120.398 38.4297 121.273 40.1484C122.148 41.8516 122.586 43.8594 122.586 46.1719C122.586 48.4844 122.148 50.5 121.273 52.2188C120.398 53.9219 119.195 55.2344 117.664 56.1562C116.133 57.0625 114.398 57.5156 112.461 57.5156C110.93 57.5156 109.516 57.1719 108.219 56.4844C106.922 55.7969 105.781 54.8125 104.797 53.5312V55.4062C104.797 55.9844 104.68 56.3984 104.445 56.6484C104.227 56.8828 103.852 57 103.32 57H99.5938C99.0625 57 98.6797 56.8828 98.4453 56.6484C98.2266 56.3984 98.1172 55.9844 98.1172 55.4062C98.1172 54.8281 98.2266 54.4219 98.4453 54.1875C98.6797 53.9375 99.0625 53.8125 99.5938 53.8125H101.516V29.4375H99.125C98.5938 29.4375 98.2109 29.3203 97.9766 29.0859C97.7578 28.8359 97.6484 28.4219 97.6484 27.8438C97.6484 27.2656 97.7578 26.8594 97.9766 26.625C98.2109 26.375 98.5938 26.25 99.125 26.25H103.555ZM112.227 38.2969C110.836 38.2969 109.594 38.6094 108.5 39.2344C107.422 39.8594 106.57 40.7656 105.945 41.9531C105.336 43.1406 105.031 44.5469 105.031 46.1719C105.031 47.7969 105.336 49.2031 105.945 50.3906C106.57 51.5781 107.422 52.4844 108.5 53.1094C109.594 53.7344 110.836 54.0469 112.227 54.0469C113.617 54.0469 114.812 53.7188 115.812 53.0625C116.812 52.3906 117.57 51.4609 118.086 50.2734C118.617 49.0859 118.883 47.7188 118.883 46.1719C118.883 44.625 118.617 43.2578 118.086 42.0703C117.57 40.8828 116.812 39.9609 115.812 39.3047C114.812 38.6328 113.617 38.2969 112.227 38.2969ZM139.953 34.8281C142.094 34.8281 144.023 35.3125 145.742 36.2812C147.461 37.25 148.805 38.6016 149.773 40.3359C150.758 42.0547 151.25 44 151.25 46.1719C151.25 48.3438 150.758 50.2969 149.773 52.0312C148.805 53.75 147.461 55.0938 145.742 56.0625C144.023 57.0312 142.094 57.5156 139.953 57.5156C137.812 57.5156 135.883 57.0312 134.164 56.0625C132.445 55.0938 131.094 53.75 130.109 52.0312C129.141 50.2969 128.656 48.3438 128.656 46.1719C128.656 44 129.141 42.0547 130.109 40.3359C131.094 38.6016 132.445 37.25 134.164 36.2812C135.883 35.3125 137.812 34.8281 139.953 34.8281ZM139.953 38.2969C138.438 38.2969 137.102 38.6328 135.945 39.3047C134.805 39.9609 133.922 40.8906 133.297 42.0938C132.672 43.2812 132.359 44.6406 132.359 46.1719C132.359 47.7031 132.672 49.0703 133.297 50.2734C133.922 51.4609 134.805 52.3906 135.945 53.0625C137.102 53.7188 138.438 54.0469 139.953 54.0469C141.469 54.0469 142.797 53.7188 143.938 53.0625C145.094 52.3906 145.984 51.4609 146.609 50.2734C147.234 49.0703 147.547 47.7031 147.547 46.1719C147.547 44.6406 147.234 43.2812 146.609 42.0938C145.984 40.8906 145.094 39.9609 143.938 39.3047C142.797 38.6328 141.469 38.2969 139.953 38.2969ZM176.281 35.3438C176.812 35.3438 177.188 35.4688 177.406 35.7188C177.641 35.9531 177.758 36.3594 177.758 36.9375V53.8125H179.68C180.211 53.8125 180.586 53.9375 180.805 54.1875C181.039 54.4219 181.156 54.8281 181.156 55.4062C181.156 55.9844 181.039 56.3984 180.805 56.6484C180.586 56.8828 180.211 57 179.68 57H175.953C175.422 57 175.039 56.8828 174.805 56.6484C174.586 56.4141 174.477 56.0078 174.477 55.4297V52.5938C173.445 54.1875 172.234 55.4062 170.844 56.25C169.469 57.0938 167.984 57.5156 166.391 57.5156C164.969 57.5156 163.734 57.2109 162.688 56.6016C161.641 55.9766 160.836 55.0859 160.273 53.9297C159.711 52.7734 159.43 51.4219 159.43 49.875V38.5312H157.508C156.977 38.5312 156.594 38.4141 156.359 38.1797C156.141 37.9297 156.031 37.5156 156.031 36.9375C156.031 36.3594 156.141 35.9531 156.359 35.7188C156.594 35.4688 156.977 35.3438 157.508 35.3438H161.469C162 35.3438 162.375 35.4688 162.594 35.7188C162.828 35.9531 162.945 36.3594 162.945 36.9375V49.5234C162.945 50.9141 163.266 52.0156 163.906 52.8281C164.547 53.6406 165.492 54.0469 166.742 54.0469C168.07 54.0469 169.305 53.6641 170.445 52.8984C171.602 52.1328 172.523 51.0781 173.211 49.7344C173.898 48.3906 174.242 46.8906 174.242 45.2344V38.5312H170.914C170.383 38.5312 170 38.4141 169.766 38.1797C169.547 37.9297 169.438 37.5156 169.438 36.9375C169.438 36.3594 169.547 35.9531 169.766 35.7188C170 35.4688 170.383 35.3438 170.914 35.3438H176.281ZM193.859 28.6641C194.5 28.6641 194.953 28.7812 195.219 29.0156C195.484 29.25 195.617 29.6406 195.617 30.1875V37.2188H205.25C205.781 37.2188 206.156 37.3438 206.375 37.5938C206.609 37.8281 206.727 38.2344 206.727 38.8125C206.727 39.3906 206.609 39.8047 206.375 40.0547C206.156 40.2891 205.781 40.4062 205.25 40.4062H195.617V48.9375C195.617 50.7188 195.922 52.0234 196.531 52.8516C197.156 53.6797 198.234 54.0938 199.766 54.0938C200.812 54.0938 201.914 53.8828 203.07 53.4609C204.227 53.0391 205.344 52.4766 206.422 51.7734C206.641 51.6172 206.883 51.5391 207.148 51.5391C207.68 51.5391 208.133 51.8984 208.508 52.6172C208.711 53.0234 208.812 53.375 208.812 53.6719C208.812 54.1719 208.555 54.5781 208.039 54.8906C206.82 55.6562 205.461 56.2891 203.961 56.7891C202.461 57.2734 201.062 57.5156 199.766 57.5156C197.109 57.5156 195.164 56.8281 193.93 55.4531C192.711 54.0625 192.102 51.9922 192.102 49.2422V40.4062H187.344C186.812 40.4062 186.43 40.2891 186.195 40.0547C185.977 39.8047 185.867 39.3906 185.867 38.8125C185.867 38.2344 185.977 37.8281 186.195 37.5938C186.43 37.3438 186.812 37.2188 187.344 37.2188H192.102V30.1875C192.102 29.6406 192.234 29.25 192.5 29.0156C192.766 28.7812 193.219 28.6641 193.859 28.6641Z" fill="white"/>
</svg>
