<svg width="220" height="100" viewBox="0 0 220 100" fill="none" xmlns="http://www.w3.org/2000/svg">
<rect x="2.5" y="2.5" width="215" height="95" rx="7.5" stroke="#90FF02" stroke-width="5"/>
<g filter="url(#filter0_d_29_1024)">
<path d="M27.4648 33.3389C29.2168 33.3389 30.7067 33.6383 31.9346 34.2373C33.1624 34.8363 34.0833 35.6823 34.6973 36.7754C35.3262 37.8535 35.6406 39.1188 35.6406 40.5713C35.6406 41.7093 35.3786 42.7201 34.8545 43.6035C34.3454 44.472 33.6117 45.1833 32.6533 45.7373C34.2406 46.2464 35.4535 47.07 36.292 48.208C37.1455 49.3311 37.5723 50.7236 37.5723 52.3857C37.5723 53.958 37.2354 55.3132 36.5615 56.4512C35.8877 57.5892 34.9069 58.4652 33.6191 59.0791C32.3314 59.693 30.7741 60 28.9473 60H16.2119C15.7028 60 15.3359 59.8877 15.1113 59.6631C14.9017 59.4235 14.7969 59.0267 14.7969 58.4727C14.7969 57.9186 14.9017 57.5293 15.1113 57.3047C15.3359 57.0651 15.7028 56.9453 16.2119 56.9453H18.9521V36.3936H16.2119C15.7028 36.3936 15.3359 36.2812 15.1113 36.0566C14.9017 35.8171 14.7969 35.4202 14.7969 34.8662C14.7969 34.3122 14.9017 33.9229 15.1113 33.6982C15.3359 33.4587 15.7028 33.3389 16.2119 33.3389H27.4648ZM22.3213 44.7041H26.9707C28.6927 44.7041 29.9954 44.3447 30.8789 43.626C31.7624 42.9072 32.2041 41.889 32.2041 40.5713C32.2041 39.1937 31.7699 38.153 30.9014 37.4492C30.0329 36.7454 28.7227 36.3936 26.9707 36.3936H22.3213V44.7041ZM22.3213 56.9453H28.2734C30.1152 56.9453 31.5303 56.5485 32.5186 55.7549C33.5218 54.9613 34.0234 53.8382 34.0234 52.3857C34.0234 49.3011 32.1442 47.7588 28.3857 47.7588H22.3213V56.9453ZM61.6055 39.2461C62.1146 39.2461 62.474 39.3659 62.6836 39.6055C62.9082 39.8301 63.0205 40.2194 63.0205 40.7734V56.9453H64.8623C65.3714 56.9453 65.7308 57.0651 65.9404 57.3047C66.165 57.5293 66.2773 57.9186 66.2773 58.4727C66.2773 59.0267 66.165 59.4235 65.9404 59.6631C65.7308 59.8877 65.3714 60 64.8623 60H61.291C60.7819 60 60.415 59.8877 60.1904 59.6631C59.9808 59.4385 59.876 59.0492 59.876 58.4951V55.7773C58.8877 57.3047 57.7272 58.4727 56.3945 59.2812C55.0768 60.0898 53.6543 60.4941 52.127 60.4941C50.7643 60.4941 49.5814 60.2021 48.5781 59.6182C47.5749 59.0192 46.8037 58.1657 46.2646 57.0576C45.7256 55.9495 45.4561 54.6543 45.4561 53.1719V42.3008H43.6143C43.1051 42.3008 42.7383 42.1885 42.5137 41.9639C42.304 41.7243 42.1992 41.3275 42.1992 40.7734C42.1992 40.2194 42.304 39.8301 42.5137 39.6055C42.7383 39.3659 43.1051 39.2461 43.6143 39.2461H47.4102C47.9193 39.2461 48.2786 39.3659 48.4883 39.6055C48.7129 39.8301 48.8252 40.2194 48.8252 40.7734V52.835C48.8252 54.1676 49.1322 55.2233 49.7461 56.002C50.36 56.7806 51.266 57.1699 52.4639 57.1699C53.7367 57.1699 54.9196 56.8031 56.0127 56.0693C57.1208 55.3356 58.0042 54.3249 58.6631 53.0371C59.3219 51.7493 59.6514 50.3118 59.6514 48.7246V42.3008H56.4619C55.9528 42.3008 55.5859 42.1885 55.3613 41.9639C55.1517 41.7243 55.0469 41.3275 55.0469 40.7734C55.0469 40.2194 55.1517 39.8301 55.3613 39.6055C55.5859 39.3659 55.9528 39.2461 56.4619 39.2461H61.6055ZM93.208 39.2461C93.7171 39.2461 94.0765 39.3659 94.2861 39.6055C94.5107 39.8301 94.623 40.2194 94.623 40.7734C94.623 41.3275 94.5107 41.7243 94.2861 41.9639C94.0765 42.1885 93.7171 42.3008 93.208 42.3008H91.8154L82.6289 61.123C81.6556 63.1146 80.7048 64.6794 79.7764 65.8174C78.848 66.9554 77.7998 67.7865 76.6318 68.3105C75.4788 68.8496 74.0713 69.1491 72.4092 69.209C71.8851 69.224 71.4808 69.0892 71.1963 68.8047C70.9118 68.5352 70.7695 68.0485 70.7695 67.3447C70.7695 66.3714 71.1663 65.8623 71.96 65.8174C73.3975 65.7425 74.5355 65.5029 75.374 65.0986C76.2275 64.6943 77.0062 63.998 77.71 63.0098C78.4287 62.0365 79.3047 60.5091 80.3379 58.4277L72.1172 42.3008H70.7021C70.193 42.3008 69.8262 42.1885 69.6016 41.9639C69.3919 41.7243 69.2871 41.3275 69.2871 40.7734C69.2871 40.2194 69.3919 39.8301 69.6016 39.6055C69.8262 39.3659 70.193 39.2461 70.7021 39.2461H78.6533C79.1624 39.2461 79.5218 39.3659 79.7314 39.6055C79.9561 39.8301 80.0684 40.2194 80.0684 40.7734C80.0684 41.3275 79.9561 41.7243 79.7314 41.9639C79.5218 42.1885 79.1624 42.3008 78.6533 42.3008H75.7783L82.1123 54.9238L88.1543 42.3008H86.1553C85.6462 42.3008 85.2793 42.1885 85.0547 41.9639C84.8451 41.7243 84.7402 41.3275 84.7402 40.7734C84.7402 40.2194 84.8451 39.8301 85.0547 39.6055C85.2793 39.3659 85.6462 39.2461 86.1553 39.2461H93.208ZM147.923 33.3389C148.432 33.3389 148.791 33.4587 149.001 33.6982C149.226 33.9229 149.338 34.3122 149.338 34.8662C149.338 35.4202 149.226 35.8171 149.001 36.0566C148.791 36.2812 148.432 36.3936 147.923 36.3936H146.643V59.1689C146.643 59.5732 146.5 59.8952 146.216 60.1348C145.946 60.3743 145.527 60.4941 144.958 60.4941C144.164 60.4941 143.535 60.0824 143.071 59.2588L131.414 38.4375H131.324V56.9453H134.491C135 56.9453 135.36 57.0651 135.569 57.3047C135.794 57.5293 135.906 57.9186 135.906 58.4727C135.906 59.0267 135.794 59.4235 135.569 59.6631C135.36 59.8877 135 60 134.491 60H126.54C126.031 60 125.664 59.8877 125.439 59.6631C125.23 59.4235 125.125 59.0267 125.125 58.4727C125.125 57.9186 125.23 57.5293 125.439 57.3047C125.664 57.0651 126.031 56.9453 126.54 56.9453H128.045V36.3936H126.315C125.806 36.3936 125.439 36.2812 125.215 36.0566C125.005 35.8171 124.9 35.4202 124.9 34.8662C124.9 34.3122 125.005 33.9229 125.215 33.6982C125.439 33.4587 125.806 33.3389 126.315 33.3389H131.347C131.676 33.3389 131.938 33.3913 132.133 33.4961C132.342 33.6009 132.507 33.7581 132.627 33.9678L143.273 53.0146H143.363V36.3936H140.646C140.136 36.3936 139.77 36.2812 139.545 36.0566C139.335 35.8171 139.23 35.4202 139.23 34.8662C139.23 34.3122 139.335 33.9229 139.545 33.6982C139.77 33.4587 140.136 33.3389 140.646 33.3389H147.923ZM164.701 38.752C166.753 38.752 168.602 39.2161 170.249 40.1445C171.896 41.0729 173.184 42.3682 174.112 44.0303C175.056 45.6774 175.527 47.5417 175.527 49.623C175.527 51.7044 175.056 53.5762 174.112 55.2383C173.184 56.8854 171.896 58.1732 170.249 59.1016C168.602 60.0299 166.753 60.4941 164.701 60.4941C162.65 60.4941 160.8 60.0299 159.153 59.1016C157.506 58.1732 156.211 56.8854 155.268 55.2383C154.339 53.5762 153.875 51.7044 153.875 49.623C153.875 47.5417 154.339 45.6774 155.268 44.0303C156.211 42.3682 157.506 41.0729 159.153 40.1445C160.8 39.2161 162.65 38.752 164.701 38.752ZM164.701 42.0762C163.249 42.0762 161.968 42.3981 160.86 43.042C159.767 43.6709 158.921 44.5618 158.322 45.7148C157.723 46.8529 157.424 48.1556 157.424 49.623C157.424 51.0905 157.723 52.4007 158.322 53.5537C158.921 54.6917 159.767 55.5827 160.86 56.2266C161.968 56.8555 163.249 57.1699 164.701 57.1699C166.154 57.1699 167.426 56.8555 168.52 56.2266C169.628 55.5827 170.481 54.6917 171.08 53.5537C171.679 52.4007 171.979 51.0905 171.979 49.623C171.979 48.1556 171.679 46.8529 171.08 45.7148C170.481 44.5618 169.628 43.6709 168.52 43.042C167.426 42.3981 166.154 42.0762 164.701 42.0762ZM204.884 39.2461C205.393 39.2461 205.752 39.3659 205.962 39.6055C206.187 39.8301 206.299 40.2194 206.299 40.7734C206.299 41.3275 206.187 41.7243 205.962 41.9639C205.752 42.1885 205.393 42.3008 204.884 42.3008H204.345L199.92 59.0342C199.77 59.5732 199.546 59.9476 199.246 60.1572C198.962 60.3818 198.535 60.4941 197.966 60.4941C197.322 60.4941 196.813 60.3743 196.438 60.1348C196.079 59.9102 195.81 59.5433 195.63 59.0342L192.193 49.2861L188.712 59.0342C188.532 59.5433 188.248 59.9102 187.858 60.1348C187.484 60.3743 186.975 60.4941 186.331 60.4941C185.762 60.4941 185.335 60.3818 185.051 60.1572C184.766 59.9476 184.557 59.5732 184.422 59.0342L180.087 42.3008H179.683C179.174 42.3008 178.807 42.1885 178.582 41.9639C178.372 41.7243 178.268 41.3275 178.268 40.7734C178.268 40.2194 178.372 39.8301 178.582 39.6055C178.807 39.3659 179.174 39.2461 179.683 39.2461H186.286C186.795 39.2461 187.155 39.3659 187.364 39.6055C187.589 39.8301 187.701 40.2194 187.701 40.7734C187.701 41.3275 187.589 41.7243 187.364 41.9639C187.155 42.1885 186.795 42.3008 186.286 42.3008H183.523L186.758 55.373L190.509 44.9512C190.614 44.6367 190.808 44.3822 191.093 44.1875C191.377 43.9928 191.752 43.8955 192.216 43.8955C193.159 43.8955 193.736 44.195 193.945 44.7939L197.674 55.373L200.998 42.3008H198.729C198.22 42.3008 197.854 42.1885 197.629 41.9639C197.419 41.7243 197.314 41.3275 197.314 40.7734C197.314 40.2194 197.419 39.8301 197.629 39.6055C197.854 39.3659 198.22 39.2461 198.729 39.2461H204.884Z" fill="#90FF02"/>
</g>
<defs>
<filter id="filter0_d_29_1024" x="4.79688" y="27.3389" width="211.502" height="55.8926" filterUnits="userSpaceOnUse" color-interpolation-filters="sRGB">
<feFlood flood-opacity="0" result="BackgroundImageFix"/>
<feColorMatrix in="SourceAlpha" type="matrix" values="0 0 0 0 0 0 0 0 0 0 0 0 0 0 0 0 0 0 127 0" result="hardAlpha"/>
<feOffset dy="4"/>
<feGaussianBlur stdDeviation="5"/>
<feComposite in2="hardAlpha" operator="out"/>
<feColorMatrix type="matrix" values="0 0 0 0 0.563667 0 0 0 0 1 0 0 0 0 0.00833333 0 0 0 0.7 0"/>
<feBlend mode="normal" in2="BackgroundImageFix" result="effect1_dropShadow_29_1024"/>
<feBlend mode="normal" in="SourceGraphic" in2="effect1_dropShadow_29_1024" result="shape"/>
</filter>
</defs>
</svg>
