<svg width="31" height="31" viewBox="0 0 31 31" fill="none" xmlns="http://www.w3.org/2000/svg">
<path d="M8.61111 27.125C7.23333 27.125 5.85556 25.7688 5.16667 25.1875C1.72222 22.475 0.688889 21.5063 0 20.925V29.0625C0 30.1324 0.771233 31 1.72222 31H15.5C16.451 31 17.2222 30.1324 17.2222 29.0625V20.925C16.5333 21.5063 15.5 22.475 12.0556 25.1875C11.3667 25.7688 9.98889 27.125 8.61111 27.125ZM15.5 15.5H1.72222C0.771233 15.5 0 16.3676 0 17.4375V18.4062C1.37778 19.5688 1.20556 19.5687 6.2 23.6375C6.71667 24.025 7.75 25.1875 8.61111 25.1875C9.47222 25.1875 10.5056 24.025 11.0222 23.8313C16.0167 19.7625 15.8444 19.7625 17.2222 18.6V17.4375C17.2222 16.3676 16.451 15.5 15.5 15.5ZM29.2778 9.6875H12.0556C11.1046 9.6875 10.3333 10.5551 10.3333 11.625V13.5625H15.5C17.2873 13.5625 18.7609 15.1016 18.9288 17.0633L18.9444 17.05V25.1875H29.2778C30.2288 25.1875 31 24.3199 31 23.25V11.625C31 10.5551 30.2288 9.6875 29.2778 9.6875ZM27.5556 17.4375H24.1111V13.5625H27.5556V17.4375ZM8.61111 11.625C8.61111 9.4883 10.1563 7.75 12.0556 7.75H24.1111V1.9375C24.1111 0.867637 23.3399 0 22.3889 0H5.16667C4.21568 0 3.44444 0.867637 3.44444 1.9375V13.5625H8.61111V11.625Z" fill="white"/>
</svg>
