<svg width="54" height="54" viewBox="0 0 54 54" fill="none" xmlns="http://www.w3.org/2000/svg">
<g filter="url(#filter0_d_51_1128)">
<path d="M42.8334 27.0961C42.8334 18.298 35.7454 11.1667 27.0001 11.1667C18.2548 11.1667 11.1667 18.298 11.1667 27.0961C11.1667 35.0486 16.9554 41.6385 24.5259 42.8334V31.7015H20.5063V27.095H24.5259V23.5864C24.5259 19.5942 26.8892 17.3881 30.5066 17.3881C32.2377 17.3881 34.0512 17.6995 34.0512 17.6995V21.6199H32.053C30.0865 21.6199 29.4743 22.8485 29.4743 24.1089V27.0961H33.8654L33.1635 31.7004H29.4743V42.8334C37.0447 41.6385 42.8334 35.0486 42.8334 27.0961Z" fill="#90FF02"/>
</g>
<defs>
<filter id="filter0_d_51_1128" x="0" y="0" width="54" height="54" filterUnits="userSpaceOnUse" color-interpolation-filters="sRGB">
<feFlood flood-opacity="0" result="BackgroundImageFix"/>
<feColorMatrix in="SourceAlpha" type="matrix" values="0 0 0 0 0 0 0 0 0 0 0 0 0 0 0 0 0 0 127 0" result="hardAlpha"/>
<feOffset/>
<feGaussianBlur stdDeviation="4"/>
<feColorMatrix type="matrix" values="0 0 0 0 1 0 0 0 0 1 0 0 0 0 1 0 0 0 0.8 0"/>
<feBlend mode="normal" in2="BackgroundImageFix" result="effect1_dropShadow_51_1128"/>
<feBlend mode="normal" in="SourceGraphic" in2="effect1_dropShadow_51_1128" result="shape"/>
</filter>
</defs>
</svg>
