<svg width="281" height="89" viewBox="0 0 281 89" fill="none" xmlns="http://www.w3.org/2000/svg">
<rect x="1.5" y="1.5" width="278" height="86" rx="8.5" stroke="white" stroke-width="3"/>
<path d="M107.43 29.1797C107.961 29.1797 108.336 29.3047 108.555 29.5547C108.789 29.7891 108.906 30.1953 108.906 30.7734C108.906 31.3516 108.789 31.7656 108.555 32.0156C108.336 32.25 107.961 32.3672 107.43 32.3672H105.742V53.8125H107.43C107.961 53.8125 108.336 53.9375 108.555 54.1875C108.789 54.4219 108.906 54.8281 108.906 55.4062C108.906 55.9844 108.789 56.3984 108.555 56.6484C108.336 56.8828 107.961 57 107.43 57H100.07C99.5391 57 99.1562 56.8828 98.9219 56.6484C98.7031 56.3984 98.5938 55.9844 98.5938 55.4062C98.5938 54.8281 98.7031 54.4219 98.9219 54.1875C99.1562 53.9375 99.5391 53.8125 100.07 53.8125H102.227V44.25H90.5547V53.8125H92.7109C93.2422 53.8125 93.6172 53.9375 93.8359 54.1875C94.0703 54.4219 94.1875 54.8281 94.1875 55.4062C94.1875 55.9844 94.0703 56.3984 93.8359 56.6484C93.6172 56.8828 93.2422 57 92.7109 57H85.3516C84.8203 57 84.4375 56.8828 84.2031 56.6484C83.9844 56.3984 83.875 55.9844 83.875 55.4062C83.875 54.8281 83.9844 54.4219 84.2031 54.1875C84.4375 53.9375 84.8203 53.8125 85.3516 53.8125H87.0391V32.3672H85.3516C84.8203 32.3672 84.4375 32.25 84.2031 32.0156C83.9844 31.7656 83.875 31.3516 83.875 30.7734C83.875 30.1953 83.9844 29.7891 84.2031 29.5547C84.4375 29.3047 84.8203 29.1797 85.3516 29.1797H92.7109C93.2422 29.1797 93.6172 29.3047 93.8359 29.5547C94.0703 29.7891 94.1875 30.1953 94.1875 30.7734C94.1875 31.3516 94.0703 31.7656 93.8359 32.0156C93.6172 32.25 93.2422 32.3672 92.7109 32.3672H90.5547V41.0625H102.227V32.3672H100.07C99.5391 32.3672 99.1562 32.25 98.9219 32.0156C98.7031 31.7656 98.5938 31.3516 98.5938 30.7734C98.5938 30.1953 98.7031 29.7891 98.9219 29.5547C99.1562 29.3047 99.5391 29.1797 100.07 29.1797H107.43ZM125.172 34.8281C127.312 34.8281 129.242 35.3125 130.961 36.2812C132.68 37.25 134.023 38.6016 134.992 40.3359C135.977 42.0547 136.469 44 136.469 46.1719C136.469 48.3438 135.977 50.2969 134.992 52.0312C134.023 53.75 132.68 55.0938 130.961 56.0625C129.242 57.0312 127.312 57.5156 125.172 57.5156C123.031 57.5156 121.102 57.0312 119.383 56.0625C117.664 55.0938 116.312 53.75 115.328 52.0312C114.359 50.2969 113.875 48.3438 113.875 46.1719C113.875 44 114.359 42.0547 115.328 40.3359C116.312 38.6016 117.664 37.25 119.383 36.2812C121.102 35.3125 123.031 34.8281 125.172 34.8281ZM125.172 38.2969C123.656 38.2969 122.32 38.6328 121.164 39.3047C120.023 39.9609 119.141 40.8906 118.516 42.0938C117.891 43.2812 117.578 44.6406 117.578 46.1719C117.578 47.7031 117.891 49.0703 118.516 50.2734C119.141 51.4609 120.023 52.3906 121.164 53.0625C122.32 53.7188 123.656 54.0469 125.172 54.0469C126.688 54.0469 128.016 53.7188 129.156 53.0625C130.312 52.3906 131.203 51.4609 131.828 50.2734C132.453 49.0703 132.766 47.7031 132.766 46.1719C132.766 44.6406 132.453 43.2812 131.828 42.0938C131.203 40.8906 130.312 39.9609 129.156 39.3047C128.016 38.6328 126.688 38.2969 125.172 38.2969ZM167.477 53.8125C168.008 53.8125 168.383 53.9375 168.602 54.1875C168.836 54.4219 168.953 54.8281 168.953 55.4062C168.953 55.9844 168.836 56.3984 168.602 56.6484C168.383 56.8828 168.008 57 167.477 57H163.984C163.453 57 163.07 56.8828 162.836 56.6484C162.617 56.3984 162.508 55.9844 162.508 55.4062V41.5312C162.508 40.4531 162.328 39.6484 161.969 39.1172C161.625 38.5703 161.062 38.2969 160.281 38.2969C159.547 38.2969 158.867 38.6406 158.242 39.3281C157.617 40 157.117 40.9453 156.742 42.1641C156.383 43.3672 156.203 44.7422 156.203 46.2891V53.8125H157.539C158.07 53.8125 158.445 53.9375 158.664 54.1875C158.898 54.4219 159.016 54.8281 159.016 55.4062C159.016 55.9844 158.898 56.3984 158.664 56.6484C158.445 56.8828 158.07 57 157.539 57H154.164C153.633 57 153.25 56.8828 153.016 56.6484C152.797 56.3984 152.688 55.9844 152.688 55.4062V41.5312C152.688 40.4531 152.508 39.6484 152.148 39.1172C151.805 38.5703 151.242 38.2969 150.461 38.2969C149.727 38.2969 149.047 38.6406 148.422 39.3281C147.797 40 147.297 40.9453 146.922 42.1641C146.562 43.3672 146.383 44.7422 146.383 46.2891V53.8125H147.602C148.133 53.8125 148.508 53.9375 148.727 54.1875C148.961 54.4219 149.078 54.8281 149.078 55.4062C149.078 55.9844 148.961 56.3984 148.727 56.6484C148.508 56.8828 148.133 57 147.602 57H140.945C140.414 57 140.031 56.8828 139.797 56.6484C139.578 56.3984 139.469 55.9844 139.469 55.4062C139.469 54.8281 139.578 54.4219 139.797 54.1875C140.031 53.9375 140.414 53.8125 140.945 53.8125H142.867V38.5312H140.945C140.414 38.5312 140.031 38.4141 139.797 38.1797C139.578 37.9297 139.469 37.5156 139.469 36.9375C139.469 36.3594 139.578 35.9531 139.797 35.7188C140.031 35.4688 140.414 35.3438 140.945 35.3438H144.438C144.969 35.3438 145.344 35.4688 145.562 35.7188C145.797 35.9531 145.914 36.3594 145.914 36.9375V39.2578C146.586 37.7891 147.391 36.6875 148.328 35.9531C149.266 35.2031 150.281 34.8281 151.375 34.8281C152.438 34.8281 153.367 35.1875 154.164 35.9062C154.961 36.625 155.5 37.6797 155.781 39.0703C157.172 36.2422 158.969 34.8281 161.172 34.8281C162.094 34.8281 162.914 35.0625 163.633 35.5312C164.367 35.9844 164.945 36.6875 165.367 37.6406C165.805 38.5781 166.023 39.7344 166.023 41.1094V53.8125H167.477ZM182.945 34.8281C185.211 34.8281 187.141 35.2891 188.734 36.2109C190.344 37.1172 191.578 38.3828 192.438 40.0078C193.297 41.6172 193.789 43.4766 193.914 45.5859C193.914 46.1172 193.797 46.4922 193.562 46.7109C193.344 46.9297 192.969 47.0391 192.438 47.0391H175.469C175.578 49.3672 176.266 51.1328 177.531 52.3359C178.812 53.5234 180.617 54.1172 182.945 54.1172C184.383 54.1172 185.805 53.9375 187.211 53.5781C188.617 53.2031 189.852 52.7109 190.914 52.1016C191.18 51.9609 191.422 51.8906 191.641 51.8906C192.188 51.8906 192.633 52.3047 192.977 53.1328C193.117 53.4609 193.188 53.7578 193.188 54.0234C193.188 54.6484 192.844 55.1328 192.156 55.4766C190.953 56.0859 189.531 56.5781 187.891 56.9531C186.25 57.3281 184.602 57.5156 182.945 57.5156C180.586 57.5156 178.57 57.0625 176.898 56.1562C175.227 55.25 173.953 53.9453 173.078 52.2422C172.203 50.5391 171.766 48.5156 171.766 46.1719C171.766 43.9375 172.242 41.9609 173.195 40.2422C174.148 38.5234 175.469 37.1953 177.156 36.2578C178.844 35.3047 180.773 34.8281 182.945 34.8281ZM182.945 38.2266C181.023 38.2266 179.43 38.7188 178.164 39.7031C176.914 40.6719 176.094 42.0234 175.703 43.7578H190.023C189.695 41.9609 188.938 40.5938 187.75 39.6562C186.578 38.7031 184.977 38.2266 182.945 38.2266Z" fill="white"/>
</svg>
