<svg width="281" height="89" viewBox="0 0 281 89" fill="none" xmlns="http://www.w3.org/2000/svg">
<rect x="1.5" y="1.5" width="278" height="86" rx="8.5" stroke="white" stroke-width="3"/>
<path d="M84.3359 29.1797C84.8672 29.1797 85.2422 29.3047 85.4609 29.5547C85.6953 29.7891 85.8125 30.1953 85.8125 30.7734C85.8125 31.3516 85.6953 31.7656 85.4609 32.0156C85.2422 32.25 84.8672 32.3672 84.3359 32.3672H78.6641V53.8125H90.2656V46.1016C90.2656 45.5547 90.3984 45.1641 90.6641 44.9297C90.9297 44.6953 91.3828 44.5781 92.0234 44.5781C92.6641 44.5781 93.1172 44.6953 93.3828 44.9297C93.6484 45.1641 93.7812 45.5547 93.7812 46.1016V55.4062C93.7812 55.9844 93.6641 56.3984 93.4297 56.6484C93.2109 56.8828 92.8359 57 92.3047 57H71.3516C70.8203 57 70.4375 56.8828 70.2031 56.6484C69.9844 56.3984 69.875 55.9844 69.875 55.4062C69.875 54.8281 69.9844 54.4219 70.2031 54.1875C70.4375 53.9375 70.8203 53.8125 71.3516 53.8125H75.1484V32.3672H71.3516C70.8203 32.3672 70.4375 32.25 70.2031 32.0156C69.9844 31.7656 69.875 31.3516 69.875 30.7734C69.875 30.1953 69.9844 29.7891 70.2031 29.5547C70.4375 29.3047 70.8203 29.1797 71.3516 29.1797H84.3359ZM112.016 35.3438C112.547 35.3438 112.922 35.4688 113.141 35.7188C113.375 35.9531 113.492 36.3594 113.492 36.9375V53.8125H121.016C121.547 53.8125 121.922 53.9375 122.141 54.1875C122.375 54.4219 122.492 54.8281 122.492 55.4062C122.492 55.9844 122.375 56.3984 122.141 56.6484C121.922 56.8828 121.547 57 121.016 57H102.641C102.109 57 101.727 56.8828 101.492 56.6484C101.273 56.3984 101.164 55.9844 101.164 55.4062C101.164 54.8281 101.273 54.4219 101.492 54.1875C101.727 53.9375 102.109 53.8125 102.641 53.8125H109.977V38.5312H104.047C103.516 38.5312 103.133 38.4141 102.898 38.1797C102.68 37.9297 102.57 37.5156 102.57 36.9375C102.57 36.3594 102.68 35.9531 102.898 35.7188C103.133 35.4688 103.516 35.3438 104.047 35.3438H112.016ZM111.266 25.0547C112.125 25.0547 112.711 25.1719 113.023 25.4062C113.336 25.625 113.492 26.0156 113.492 26.5781V29.625C113.492 30.1875 113.336 30.5859 113.023 30.8203C112.711 31.0391 112.125 31.1484 111.266 31.1484C110.406 31.1484 109.82 31.0391 109.508 30.8203C109.195 30.5859 109.039 30.1875 109.039 29.625V26.5781C109.039 26.0156 109.195 25.625 109.508 25.4062C109.82 25.1719 110.406 25.0547 111.266 25.0547ZM142.602 34.8281C144.023 34.8281 145.258 35.1406 146.305 35.7656C147.352 36.375 148.156 37.2578 148.719 38.4141C149.281 39.5703 149.562 40.9219 149.562 42.4688V53.8125H151.484C152.016 53.8125 152.391 53.9375 152.609 54.1875C152.844 54.4219 152.961 54.8281 152.961 55.4062C152.961 55.9844 152.844 56.3984 152.609 56.6484C152.391 56.8828 152.016 57 151.484 57H143.891C143.359 57 142.977 56.8828 142.742 56.6484C142.523 56.3984 142.414 55.9844 142.414 55.4062C142.414 54.8281 142.523 54.4219 142.742 54.1875C142.977 53.9375 143.359 53.8125 143.891 53.8125H146.047V42.8203C146.047 41.4297 145.727 40.3281 145.086 39.5156C144.445 38.7031 143.5 38.2969 142.25 38.2969C140.922 38.2969 139.68 38.6797 138.523 39.4453C137.383 40.2109 136.469 41.2656 135.781 42.6094C135.094 43.9531 134.75 45.4531 134.75 47.1094V53.8125H136.906C137.438 53.8125 137.812 53.9375 138.031 54.1875C138.266 54.4219 138.383 54.8281 138.383 55.4062C138.383 55.9844 138.266 56.3984 138.031 56.6484C137.812 56.8828 137.438 57 136.906 57H129.312C128.781 57 128.398 56.8828 128.164 56.6484C127.945 56.3984 127.836 55.9844 127.836 55.4062C127.836 54.8281 127.945 54.4219 128.164 54.1875C128.398 53.9375 128.781 53.8125 129.312 53.8125H131.234V38.5312H128.844C128.312 38.5312 127.93 38.4141 127.695 38.1797C127.477 37.9297 127.367 37.5156 127.367 36.9375C127.367 36.3594 127.477 35.9531 127.695 35.7188C127.93 35.4688 128.312 35.3438 128.844 35.3438H133.039C133.57 35.3438 133.945 35.4688 134.164 35.7188C134.398 35.9531 134.516 36.3594 134.516 36.9375V39.75C135.547 38.1562 136.75 36.9375 138.125 36.0938C139.516 35.25 141.008 34.8281 142.602 34.8281ZM180.031 53.8125C180.562 53.8125 180.938 53.9375 181.156 54.1875C181.391 54.4219 181.508 54.8281 181.508 55.4062C181.508 55.9844 181.391 56.3984 181.156 56.6484C180.938 56.8828 180.562 57 180.031 57H172.438C171.906 57 171.523 56.8828 171.289 56.6484C171.07 56.3984 170.961 55.9844 170.961 55.4062C170.961 54.8281 171.07 54.4219 171.289 54.1875C171.523 53.9375 171.906 53.8125 172.438 53.8125H174.125L168.242 46.8281L163.977 50.5781V53.8125H165.688C166.219 53.8125 166.594 53.9375 166.812 54.1875C167.047 54.4219 167.164 54.8281 167.164 55.4062C167.164 55.9844 167.047 56.3984 166.812 56.6484C166.594 56.8828 166.219 57 165.688 57H157.859C157.328 57 156.945 56.8828 156.711 56.6484C156.492 56.3984 156.383 55.9844 156.383 55.4062C156.383 54.8281 156.492 54.4219 156.711 54.1875C156.945 53.9375 157.328 53.8125 157.859 53.8125H160.461V29.4375H157.391C156.859 29.4375 156.477 29.3203 156.242 29.0859C156.023 28.8359 155.914 28.4219 155.914 27.8438C155.914 27.2656 156.023 26.8594 156.242 26.625C156.477 26.375 156.859 26.25 157.391 26.25H162.5C163.031 26.25 163.406 26.375 163.625 26.625C163.859 26.8594 163.977 27.2656 163.977 27.8438V46.4062L172.906 38.5312H171.242C170.711 38.5312 170.328 38.4141 170.094 38.1797C169.875 37.9297 169.766 37.5156 169.766 36.9375C169.766 36.3594 169.875 35.9531 170.094 35.7188C170.328 35.4688 170.711 35.3438 171.242 35.3438H179.07C179.602 35.3438 179.977 35.4688 180.195 35.7188C180.43 35.9531 180.547 36.3594 180.547 36.9375C180.547 37.5156 180.43 37.9297 180.195 38.1797C179.977 38.4141 179.602 38.5312 179.07 38.5312H177.688L170.797 44.6016L178.672 53.8125H180.031ZM204.898 34.8281C205.539 34.8281 205.992 34.9453 206.258 35.1797C206.523 35.4141 206.656 35.8047 206.656 36.3516V40.8047C206.656 41.3516 206.523 41.7422 206.258 41.9766C205.992 42.2109 205.539 42.3281 204.898 42.3281C204.367 42.3281 203.992 42.125 203.773 41.7188C203.102 40.4375 202.125 39.5391 200.844 39.0234C199.562 38.4922 197.938 38.2266 195.969 38.2266C194.453 38.2266 193.266 38.5 192.406 39.0469C191.562 39.5781 191.141 40.3281 191.141 41.2969C191.141 41.7969 191.297 42.2031 191.609 42.5156C191.938 42.8281 192.414 43.0859 193.039 43.2891C193.555 43.4609 194.148 43.5938 194.82 43.6875C195.508 43.7812 196.391 43.8828 197.469 43.9922C198.984 44.1641 200.203 44.3281 201.125 44.4844C202.062 44.625 202.945 44.8438 203.773 45.1406C205.023 45.5938 205.992 46.25 206.68 47.1094C207.383 47.9688 207.734 49.1016 207.734 50.5078C207.734 51.9141 207.375 53.1484 206.656 54.2109C205.953 55.2578 204.914 56.0703 203.539 56.6484C202.18 57.2266 200.547 57.5156 198.641 57.5156C196.953 57.5156 195.469 57.2812 194.188 56.8125C192.906 56.3438 191.789 55.6328 190.836 54.6797V55.9922C190.836 56.5391 190.703 56.9297 190.438 57.1641C190.172 57.3984 189.719 57.5156 189.078 57.5156C188.438 57.5156 187.984 57.3984 187.719 57.1641C187.453 56.9297 187.32 56.5391 187.32 55.9922V50.3672C187.32 49.8203 187.453 49.4297 187.719 49.1953C187.984 48.9609 188.438 48.8438 189.078 48.8438C189.406 48.8438 189.664 48.9219 189.852 49.0781C190.039 49.2188 190.203 49.4609 190.344 49.8047C190.906 51.3047 191.844 52.3984 193.156 53.0859C194.469 53.7734 196.219 54.1172 198.406 54.1172C200.219 54.1172 201.609 53.7891 202.578 53.1328C203.547 52.4766 204.031 51.6016 204.031 50.5078C204.031 49.9766 203.859 49.5391 203.516 49.1953C203.172 48.8516 202.68 48.5703 202.039 48.3516C201.492 48.1797 200.859 48.0391 200.141 47.9297C199.438 47.8047 198.539 47.6875 197.445 47.5781C195.977 47.4219 194.75 47.2578 193.766 47.0859C192.781 46.9141 191.875 46.6641 191.047 46.3359C189.906 45.8828 189.016 45.2578 188.375 44.4609C187.75 43.6484 187.438 42.5938 187.438 41.2969C187.438 39.9375 187.789 38.7734 188.492 37.8047C189.211 36.8203 190.195 36.0781 191.445 35.5781C192.711 35.0781 194.141 34.8281 195.734 34.8281C197.25 34.8281 198.633 35.0547 199.883 35.5078C201.148 35.9609 202.234 36.5938 203.141 37.4062V36.3516C203.141 35.8047 203.273 35.4141 203.539 35.1797C203.805 34.9453 204.258 34.8281 204.898 34.8281Z" fill="white"/>
</svg>
