<svg width="281" height="89" viewBox="0 0 281 89" fill="none" xmlns="http://www.w3.org/2000/svg">
<rect x="1.5" y="1.5" width="278" height="86" rx="8.5" stroke="white" stroke-width="3"/>
<path d="M63.4453 29.1797C63.9766 29.1797 64.3516 29.3047 64.5703 29.5547C64.8047 29.7891 64.9219 30.1953 64.9219 30.7734V39.6094C64.9219 40.1562 64.7891 40.5469 64.5234 40.7812C64.2578 41.0156 63.8047 41.1328 63.1641 41.1328C62.5234 41.1328 62.0703 41.0156 61.8047 40.7812C61.5391 40.5469 61.4062 40.1562 61.4062 39.6094V32.3672H55.1484V53.8125H60.6797C61.2109 53.8125 61.5859 53.9375 61.8047 54.1875C62.0391 54.4219 62.1562 54.8281 62.1562 55.4062C62.1562 55.9844 62.0391 56.3984 61.8047 56.6484C61.5859 56.8828 61.2109 57 60.6797 57H46.1016C45.5703 57 45.1875 56.8828 44.9531 56.6484C44.7344 56.3984 44.625 55.9844 44.625 55.4062C44.625 54.8281 44.7344 54.4219 44.9531 54.1875C45.1875 53.9375 45.5703 53.8125 46.1016 53.8125H51.6328V32.3672H45.375V39.6094C45.375 40.1562 45.2422 40.5469 44.9766 40.7812C44.7109 41.0156 44.2578 41.1328 43.6172 41.1328C42.9766 41.1328 42.5234 41.0156 42.2578 40.7812C41.9922 40.5469 41.8594 40.1562 41.8594 39.6094V30.7734C41.8594 30.1953 41.9688 29.7891 42.1875 29.5547C42.4219 29.3047 42.8047 29.1797 43.3359 29.1797H63.4453ZM83.0156 35.3438C83.5469 35.3438 83.9219 35.4688 84.1406 35.7188C84.375 35.9531 84.4922 36.3594 84.4922 36.9375V53.8125H92.0156C92.5469 53.8125 92.9219 53.9375 93.1406 54.1875C93.375 54.4219 93.4922 54.8281 93.4922 55.4062C93.4922 55.9844 93.375 56.3984 93.1406 56.6484C92.9219 56.8828 92.5469 57 92.0156 57H73.6406C73.1094 57 72.7266 56.8828 72.4922 56.6484C72.2734 56.3984 72.1641 55.9844 72.1641 55.4062C72.1641 54.8281 72.2734 54.4219 72.4922 54.1875C72.7266 53.9375 73.1094 53.8125 73.6406 53.8125H80.9766V38.5312H75.0469C74.5156 38.5312 74.1328 38.4141 73.8984 38.1797C73.6797 37.9297 73.5703 37.5156 73.5703 36.9375C73.5703 36.3594 73.6797 35.9531 73.8984 35.7188C74.1328 35.4688 74.5156 35.3438 75.0469 35.3438H83.0156ZM82.2656 25.0547C83.125 25.0547 83.7109 25.1719 84.0234 25.4062C84.3359 25.625 84.4922 26.0156 84.4922 26.5781V29.625C84.4922 30.1875 84.3359 30.5859 84.0234 30.8203C83.7109 31.0391 83.125 31.1484 82.2656 31.1484C81.4062 31.1484 80.8203 31.0391 80.5078 30.8203C80.1953 30.5859 80.0391 30.1875 80.0391 29.625V26.5781C80.0391 26.0156 80.1953 25.625 80.5078 25.4062C80.8203 25.1719 81.4062 25.0547 82.2656 25.0547ZM119.391 34.8281C120.031 34.8281 120.484 34.9453 120.75 35.1797C121.016 35.4141 121.148 35.8047 121.148 36.3516V43.1484C121.148 43.6953 121.016 44.0859 120.75 44.3203C120.484 44.5547 120.031 44.6719 119.391 44.6719C118.75 44.6719 118.297 44.5547 118.031 44.3203C117.766 44.0859 117.633 43.6953 117.633 43.1484C117.633 42.1953 117.383 41.3516 116.883 40.6172C116.383 39.8828 115.633 39.3125 114.633 38.9062C113.648 38.5 112.461 38.2969 111.07 38.2969C109.57 38.2969 108.227 38.6328 107.039 39.3047C105.852 39.9766 104.922 40.9141 104.25 42.1172C103.578 43.3203 103.242 44.6719 103.242 46.1719C103.242 47.6875 103.555 49.0469 104.18 50.25C104.82 51.4375 105.711 52.3672 106.852 53.0391C108.008 53.7109 109.336 54.0469 110.836 54.0469C112.273 54.0469 113.664 53.8281 115.008 53.3906C116.367 52.9375 117.602 52.2891 118.711 51.4453C119.039 51.1953 119.344 51.0703 119.625 51.0703C120.078 51.0703 120.5 51.3906 120.891 52.0312C121.125 52.4219 121.242 52.7969 121.242 53.1562C121.242 53.7031 120.992 54.1562 120.492 54.5156C119.242 55.4531 117.766 56.1875 116.062 56.7188C114.359 57.25 112.617 57.5156 110.836 57.5156C108.602 57.5156 106.625 57.0234 104.906 56.0391C103.203 55.0547 101.883 53.7031 100.945 51.9844C100.008 50.2656 99.5391 48.3281 99.5391 46.1719C99.5391 44.0156 100.016 42.0781 100.969 40.3594C101.922 38.6406 103.25 37.2891 104.953 36.3047C106.672 35.3203 108.633 34.8281 110.836 34.8281C112.227 34.8281 113.5 35.0859 114.656 35.6016C115.828 36.1016 116.82 36.8203 117.633 37.7578V36.3516C117.633 35.8047 117.766 35.4141 118.031 35.1797C118.297 34.9453 118.75 34.8281 119.391 34.8281ZM151.031 53.8125C151.562 53.8125 151.938 53.9375 152.156 54.1875C152.391 54.4219 152.508 54.8281 152.508 55.4062C152.508 55.9844 152.391 56.3984 152.156 56.6484C151.938 56.8828 151.562 57 151.031 57H143.438C142.906 57 142.523 56.8828 142.289 56.6484C142.07 56.3984 141.961 55.9844 141.961 55.4062C141.961 54.8281 142.07 54.4219 142.289 54.1875C142.523 53.9375 142.906 53.8125 143.438 53.8125H145.125L139.242 46.8281L134.977 50.5781V53.8125H136.688C137.219 53.8125 137.594 53.9375 137.812 54.1875C138.047 54.4219 138.164 54.8281 138.164 55.4062C138.164 55.9844 138.047 56.3984 137.812 56.6484C137.594 56.8828 137.219 57 136.688 57H128.859C128.328 57 127.945 56.8828 127.711 56.6484C127.492 56.3984 127.383 55.9844 127.383 55.4062C127.383 54.8281 127.492 54.4219 127.711 54.1875C127.945 53.9375 128.328 53.8125 128.859 53.8125H131.461V29.4375H128.391C127.859 29.4375 127.477 29.3203 127.242 29.0859C127.023 28.8359 126.914 28.4219 126.914 27.8438C126.914 27.2656 127.023 26.8594 127.242 26.625C127.477 26.375 127.859 26.25 128.391 26.25H133.5C134.031 26.25 134.406 26.375 134.625 26.625C134.859 26.8594 134.977 27.2656 134.977 27.8438V46.4062L143.906 38.5312H142.242C141.711 38.5312 141.328 38.4141 141.094 38.1797C140.875 37.9297 140.766 37.5156 140.766 36.9375C140.766 36.3594 140.875 35.9531 141.094 35.7188C141.328 35.4688 141.711 35.3438 142.242 35.3438H150.07C150.602 35.3438 150.977 35.4688 151.195 35.7188C151.43 35.9531 151.547 36.3594 151.547 36.9375C151.547 37.5156 151.43 37.9297 151.195 38.1797C150.977 38.4141 150.602 38.5312 150.07 38.5312H148.688L141.797 44.6016L149.672 53.8125H151.031ZM168.727 34.8281C170.992 34.8281 172.922 35.2891 174.516 36.2109C176.125 37.1172 177.359 38.3828 178.219 40.0078C179.078 41.6172 179.57 43.4766 179.695 45.5859C179.695 46.1172 179.578 46.4922 179.344 46.7109C179.125 46.9297 178.75 47.0391 178.219 47.0391H161.25C161.359 49.3672 162.047 51.1328 163.312 52.3359C164.594 53.5234 166.398 54.1172 168.727 54.1172C170.164 54.1172 171.586 53.9375 172.992 53.5781C174.398 53.2031 175.633 52.7109 176.695 52.1016C176.961 51.9609 177.203 51.8906 177.422 51.8906C177.969 51.8906 178.414 52.3047 178.758 53.1328C178.898 53.4609 178.969 53.7578 178.969 54.0234C178.969 54.6484 178.625 55.1328 177.938 55.4766C176.734 56.0859 175.312 56.5781 173.672 56.9531C172.031 57.3281 170.383 57.5156 168.727 57.5156C166.367 57.5156 164.352 57.0625 162.68 56.1562C161.008 55.25 159.734 53.9453 158.859 52.2422C157.984 50.5391 157.547 48.5156 157.547 46.1719C157.547 43.9375 158.023 41.9609 158.977 40.2422C159.93 38.5234 161.25 37.1953 162.938 36.2578C164.625 35.3047 166.555 34.8281 168.727 34.8281ZM168.727 38.2266C166.805 38.2266 165.211 38.7188 163.945 39.7031C162.695 40.6719 161.875 42.0234 161.484 43.7578H175.805C175.477 41.9609 174.719 40.5938 173.531 39.6562C172.359 38.7031 170.758 38.2266 168.727 38.2266ZM193.641 28.6641C194.281 28.6641 194.734 28.7812 195 29.0156C195.266 29.25 195.398 29.6406 195.398 30.1875V37.2188H205.031C205.562 37.2188 205.938 37.3438 206.156 37.5938C206.391 37.8281 206.508 38.2344 206.508 38.8125C206.508 39.3906 206.391 39.8047 206.156 40.0547C205.938 40.2891 205.562 40.4062 205.031 40.4062H195.398V48.9375C195.398 50.7188 195.703 52.0234 196.312 52.8516C196.938 53.6797 198.016 54.0938 199.547 54.0938C200.594 54.0938 201.695 53.8828 202.852 53.4609C204.008 53.0391 205.125 52.4766 206.203 51.7734C206.422 51.6172 206.664 51.5391 206.93 51.5391C207.461 51.5391 207.914 51.8984 208.289 52.6172C208.492 53.0234 208.594 53.375 208.594 53.6719C208.594 54.1719 208.336 54.5781 207.82 54.8906C206.602 55.6562 205.242 56.2891 203.742 56.7891C202.242 57.2734 200.844 57.5156 199.547 57.5156C196.891 57.5156 194.945 56.8281 193.711 55.4531C192.492 54.0625 191.883 51.9922 191.883 49.2422V40.4062H187.125C186.594 40.4062 186.211 40.2891 185.977 40.0547C185.758 39.8047 185.648 39.3906 185.648 38.8125C185.648 38.2344 185.758 37.8281 185.977 37.5938C186.211 37.3438 186.594 37.2188 187.125 37.2188H191.883V30.1875C191.883 29.6406 192.016 29.25 192.281 29.0156C192.547 28.7812 193 28.6641 193.641 28.6641ZM233.461 34.8281C234.102 34.8281 234.555 34.9453 234.82 35.1797C235.086 35.4141 235.219 35.8047 235.219 36.3516V40.8047C235.219 41.3516 235.086 41.7422 234.82 41.9766C234.555 42.2109 234.102 42.3281 233.461 42.3281C232.93 42.3281 232.555 42.125 232.336 41.7188C231.664 40.4375 230.688 39.5391 229.406 39.0234C228.125 38.4922 226.5 38.2266 224.531 38.2266C223.016 38.2266 221.828 38.5 220.969 39.0469C220.125 39.5781 219.703 40.3281 219.703 41.2969C219.703 41.7969 219.859 42.2031 220.172 42.5156C220.5 42.8281 220.977 43.0859 221.602 43.2891C222.117 43.4609 222.711 43.5938 223.383 43.6875C224.07 43.7812 224.953 43.8828 226.031 43.9922C227.547 44.1641 228.766 44.3281 229.688 44.4844C230.625 44.625 231.508 44.8438 232.336 45.1406C233.586 45.5938 234.555 46.25 235.242 47.1094C235.945 47.9688 236.297 49.1016 236.297 50.5078C236.297 51.9141 235.938 53.1484 235.219 54.2109C234.516 55.2578 233.477 56.0703 232.102 56.6484C230.742 57.2266 229.109 57.5156 227.203 57.5156C225.516 57.5156 224.031 57.2812 222.75 56.8125C221.469 56.3438 220.352 55.6328 219.398 54.6797V55.9922C219.398 56.5391 219.266 56.9297 219 57.1641C218.734 57.3984 218.281 57.5156 217.641 57.5156C217 57.5156 216.547 57.3984 216.281 57.1641C216.016 56.9297 215.883 56.5391 215.883 55.9922V50.3672C215.883 49.8203 216.016 49.4297 216.281 49.1953C216.547 48.9609 217 48.8438 217.641 48.8438C217.969 48.8438 218.227 48.9219 218.414 49.0781C218.602 49.2188 218.766 49.4609 218.906 49.8047C219.469 51.3047 220.406 52.3984 221.719 53.0859C223.031 53.7734 224.781 54.1172 226.969 54.1172C228.781 54.1172 230.172 53.7891 231.141 53.1328C232.109 52.4766 232.594 51.6016 232.594 50.5078C232.594 49.9766 232.422 49.5391 232.078 49.1953C231.734 48.8516 231.242 48.5703 230.602 48.3516C230.055 48.1797 229.422 48.0391 228.703 47.9297C228 47.8047 227.102 47.6875 226.008 47.5781C224.539 47.4219 223.312 47.2578 222.328 47.0859C221.344 46.9141 220.438 46.6641 219.609 46.3359C218.469 45.8828 217.578 45.2578 216.938 44.4609C216.312 43.6484 216 42.5938 216 41.2969C216 39.9375 216.352 38.7734 217.055 37.8047C217.773 36.8203 218.758 36.0781 220.008 35.5781C221.273 35.0781 222.703 34.8281 224.297 34.8281C225.812 34.8281 227.195 35.0547 228.445 35.5078C229.711 35.9609 230.797 36.5938 231.703 37.4062V36.3516C231.703 35.8047 231.836 35.4141 232.102 35.1797C232.367 34.9453 232.82 34.8281 233.461 34.8281Z" fill="white"/>
</svg>
